<svg width="313" height="215" viewBox="0 0 313 215" fill="none" xmlns="http://www.w3.org/2000/svg">
<g opacity="0.5">
<path d="M142.379 41.8506C109.232 16.0688 62.0722 47.282 62.4816 80.0406C23.6171 78.9851 24.8686 108.163 36.1875 120.745C-3.1804 145.9 40.5045 185.886 70.8312 161.499C74.9045 188.892 115.66 187.696 120.449 173.276C154.712 198.274 182.65 176.985 192.336 163.216C218.229 191.548 251.979 167.447 243.451 151.025C279.501 163.807 286.231 124.296 265.369 116.47C293.797 92.0078 259.592 59.9059 231.621 78.3143C230.553 56.3491 207.378 48.87 196.152 58.4657C190.443 34.4278 154.135 25.4952 142.379 41.8506Z" fill="white"/>
<path d="M70.6652 160.173C70.7111 160.622 70.7665 161.064 70.8312 161.499M70.8312 161.499C74.9045 188.892 115.66 187.696 120.449 173.276C154.712 198.274 182.65 176.985 192.336 163.216C218.229 191.548 251.979 167.447 243.451 151.025C279.501 163.807 286.231 124.296 265.369 116.47C293.797 92.0078 259.592 59.9059 231.621 78.3143C230.553 56.3491 207.378 48.87 196.152 58.4657C190.443 34.4278 154.135 25.4952 142.379 41.8506C109.232 16.0688 62.0722 47.282 62.4816 80.0406C23.6171 78.9851 24.8686 108.163 36.1875 120.745C-3.1804 145.9 40.5045 185.886 70.8312 161.499Z" stroke="#3F3D3D" stroke-width="3" stroke-linejoin="round"/>
<path d="M114.251 88.8047C109.635 79.3389 126.005 69.3497 135.675 80.4051C136.706 68.5283 167.636 67.8774 170.193 92.9141" stroke="#3F3D3D" stroke-width="3" stroke-linecap="round" stroke-linejoin="round"/>
<path d="M86.23 96.1502C69.8118 88.0499 48.3088 115.252 73.7793 127.97M175.392 127.782C175.645 130.259 176.842 132.661 178.7 134.772M219.112 124.264C209.973 148.062 187.281 144.516 178.7 134.772M157.693 138.749C161.47 146.102 173.774 148.181 178.7 134.772" stroke="#3F3D3D" stroke-width="3" stroke-linecap="round" stroke-linejoin="round"/>
</g>
</svg>
