<svg width="252" height="354" viewBox="0 0 252 354" fill="none" xmlns="http://www.w3.org/2000/svg">
<g opacity="0.53">
<path d="M-388.365 340.402H-500.494C-499.246 153.168 -331.758 1.5 -125.025 1.5C81.7087 1.5 249.197 153.168 250.444 340.402H138.316C137.071 209.02 19.5098 103.099 -125.025 103.099C-269.559 103.099 -387.121 209.02 -388.365 340.402Z" fill="#F25A5D" stroke="#3F3D3D" stroke-width="3" stroke-linejoin="round"/>
<path d="M-388.365 340.402H-464.474C-463.227 171.242 -311.866 34.2258 -125.025 34.2258C61.8159 34.2258 213.178 171.242 214.424 340.402H138.316C137.071 209.02 19.5099 103.099 -125.025 103.099C-269.559 103.099 -387.121 209.02 -388.365 340.402Z" fill="#FAC96A" stroke="#3F3D3D" stroke-width="3" stroke-linejoin="round"/>
<path d="M-388.365 340.402H-426.247C-425.001 190.423 -290.753 68.9568 -125.025 68.9568C40.7039 68.9568 174.951 190.423 176.197 340.402H138.316C137.071 209.02 19.5099 103.099 -125.025 103.099C-269.559 103.099 -387.12 209.02 -388.365 340.402Z" fill="#83B3BA" stroke="#3F3D3D" stroke-width="3" stroke-linejoin="round"/>
</g>
</svg>
