<svg xmlns="http://www.w3.org/2000/svg" id="Layer_1" data-name="Layer 1" viewBox="201.8 89.38 421.01 435.33"><defs><style>.cls-1{fill:#fdbe1d;}.cls-2{fill:#f15b2b;}.cls-3{fill:#f89521;}.cls-4{fill:#616262;}.cls-5{fill:#00a86f;}.cls-6{fill:#bdbdd2;}.cls-7{fill:#2a2866;}.cls-8{fill:#fff;}.cls-9{fill:#a5a1bf;}.cls-10{fill:#63537d;}.cls-11{fill:#a398af;}.cls-12{fill:#504576;}.cls-13{fill:#796f95;}.cls-14{fill:#ed1c76;}.cls-15{fill:#a92571;}.cls-16{fill:#f59bb0;}.cls-17{fill:#d67da0;}.cls-18{fill:#d8799c;}.cls-19{fill:#ef4743;}.cls-20{fill:#b098c3;}.cls-21{fill:#606162;}.cls-22{fill:none;stroke:#6d6e71;}</style></defs><path class="cls-1" d="M622.81,358.18c0,26.21-3.44,49.31-10.24,68.67-10.5,29.51-29.19,47.21-55.57,52.62a9,9,0,0,1-1.86.19,9.2,9.2,0,0,1-9-7.58l-4.7-25.82a9.19,9.19,0,0,1,6.35-10.47c10.24-3,18.25-9.63,24.53-20.15.84-1.43,1.66-2.88,2.44-4.38a29.91,29.91,0,0,1-5.5.48c-8.18,0-14.73-2.59-19.49-7.71a36.38,36.38,0,0,1-7.46-12.56,6.52,6.52,0,0,1-.63.95l-13,15.68a9.09,9.09,0,0,1-7,3.33h-.09a9.18,9.18,0,0,1-7.08-3.48c-7.5-9.44-14.12-21.77-19.74-36.73,1,6.51,2.25,12.94,3.73,19.2a9.29,9.29,0,0,1-5.57,10.73l-22.1,8.68a9.16,9.16,0,0,1-12.25-6.43A254.4,254.4,0,0,1,452,345c0-39.91,8.83-76.64,26.28-109.16A9.1,9.1,0,0,1,491,232.31c3.81,2.28,7.4,4.53,10.66,6.72a9.25,9.25,0,0,1,3.39,11.07A184.3,184.3,0,0,0,493.23,298a285.61,285.61,0,0,0-1.69,30.6c.62-.86,1.21-1.75,1.77-2.65a140,140,0,0,0,11.32-20.59,9.12,9.12,0,0,1,13.28-4l1.43.93c3.81,2.24,7.61,4.62,11.27,7.08a9.27,9.27,0,0,1,3.12,11.78,104.45,104.45,0,0,1-18.39,26.55,71,71,0,0,0,23.85,30.73,94.81,94.81,0,0,1-.72-12.06,158.83,158.83,0,0,1,2.43-27c2.4-13.82,5.52-25.33,9.29-34.18a9.12,9.12,0,0,1,13.07-4.28c3.91,2.34,7.56,4.64,10.83,6.85a9.14,9.14,0,0,1,3.85,9.53c-.46,2.19-1,5.12-1.51,8.76a194.73,194.73,0,0,0-2.51,29.82c0,2,.08,5.08.21,9.06a34.26,34.26,0,0,0,2.09,10.5c.9,2.46,1.66,2.46,2,2.46.8,0,2.36-.92,4.32-3.54a30.06,30.06,0,0,0,5-12.3c1-10.08,1.45-20.7,1.45-31.55,0-7.21-.19-13.68-.52-19.24a9.17,9.17,0,0,1,6.8-9.46c3.73-1,7.82-1.94,12.18-2.87a9.08,9.08,0,0,1,7,1.37,9.19,9.19,0,0,1,3.92,6A290.15,290.15,0,0,1,622.81,358.18Z"/><path class="cls-1" d="M445.48,358.54c-1.56-3-3.22-6-5-8.77-1.61-2.57-3-5.08-4.28-7.5a11.27,11.27,0,0,1-1.37-5.21c0-5,3.86-10.11,11.48-15.19a9.22,9.22,0,0,0,3.14-11.72L445,301a9.18,9.18,0,0,0-11.85-4.41c-21.36,9.11-32.2,21.73-32.2,37.51a32.14,32.14,0,0,0,1.75,10.62q1.53,4.36,3.59,8.9a103.86,103.86,0,0,1,3.89,9.71,32.62,32.62,0,0,1,1.59,10.54c0,7.06-2.83,13.5-8.58,19.68q-1.65,1.74-3.42,3.48a9.12,9.12,0,0,0-1.45,2,179.27,179.27,0,0,1-5.67-45.71,219.19,219.19,0,0,1,3.88-39.58,9.22,9.22,0,0,0-6.2-10.49l-11.67-3.75a9.15,9.15,0,0,0-11.46,5.84c-.76,2.27-1.48,4.61-2.15,6.95a9,9,0,0,0-.61-.91c-7-8.8-14.52-13.25-22.36-13.25a34.17,34.17,0,0,0-18.72,5.31,9.08,9.08,0,0,0-4-7c-3.24-2.19-6.87-4.49-10.79-6.83a9,9,0,0,0-9.19-.08,8.92,8.92,0,0,0-.38-2.28,32.78,32.78,0,0,0-8.68-14.47,30.33,30.33,0,0,0-21.09-7.95,35.52,35.52,0,0,0-24.15,9.11c-7.33,6.51-13.26,15.57-17.6,26.93-4.23,10.89-7.14,23.81-8.66,38.43a110.61,110.61,0,0,0-11.29,3.92,9.3,9.3,0,0,0-4.83,12.58c1.18,2.45,2.38,4.87,3.56,7.25l2.87,5.82a9.18,9.18,0,0,0,5.41,4.7,10.17,10.17,0,0,0,3,.44,271.46,271.46,0,0,0,2.53,30.51c2.65,19.47,6.55,35.3,11.61,47a9.15,9.15,0,0,0,13.32,4.11c7.25-4.6,14.39-9.23,21.26-13.79a9.21,9.21,0,0,0,3.33-11.31,189.93,189.93,0,0,1-14.75-67.9,82.38,82.38,0,0,1,11.88-.91c1.54,0,3.06.05,4.6.13a9.15,9.15,0,0,0,9-5.63c.8-1.87,2.44-6.33,3-7.89a.06.06,0,0,1,.12,0c-.44,6-.67,12.12-.67,18.51A190.21,190.21,0,0,0,286,402.92a9.24,9.24,0,0,0,4.64,6.36,8.9,8.9,0,0,0,4.36,1.14,9.19,9.19,0,0,0,3.33-.63l21.72-8.56a9.28,9.28,0,0,0,5.38-11.4,111.54,111.54,0,0,1-5.38-28.55l-.09-1.85a34.52,34.52,0,0,1,4.69-19.57c5.32-8.91,11-8.91,13.19-8.91s4.66.91,7.44,2.68a9.14,9.14,0,0,0,12-1.88l4.21-5.16a246.59,246.59,0,0,0-5.31,51.75,188.71,188.71,0,0,0,3.23,36.12,9.15,9.15,0,0,0,9,7.48,9.06,9.06,0,0,0,3.38-.65l21.83-8.66a9.05,9.05,0,0,0,4.76-4.34,7.07,7.07,0,0,0,.93,1.33l14.49,17.07a9.08,9.08,0,0,0,6.33,3.2c.21,0,.42,0,.63,0a9.15,9.15,0,0,0,6.11-2.34,134.21,134.21,0,0,0,11.38-11.4A56,56,0,0,0,448,400.66a49.63,49.63,0,0,0,3.45-18.94,44.3,44.3,0,0,0-1.77-12.8A63.85,63.85,0,0,0,445.48,358.54ZM283.66,345.3a8.85,8.85,0,0,0-1-3.66,9.23,9.23,0,0,0-5.86-4.68,89.2,89.2,0,0,0-20.74-2.7c.47-3.69,1.06-7.31,1.75-10.79,2.76-13.28,6.39-23.16,10.77-29.31,2.43-3.39,4.2-3.39,4.79-3.39.1,0,.44,0,1.09.65a7.07,7.07,0,0,1,1.35,2.74,9.09,9.09,0,0,0,10.49,6l5.88-1.23a7.87,7.87,0,0,0,1.56-.5C288.53,312.13,285.16,327.79,283.66,345.3Z"/><path class="cls-2" d="M248.26,360.2q1.16,37.82,15.3,70.36a3.68,3.68,0,0,1-1.34,4.59Q252,441.83,241,448.7a3.76,3.76,0,0,1-5.45-1.65q-7.35-16.74-11.27-45a263.32,263.32,0,0,1-2.58-36.86V365c-1.32.6-2.62,1.23-3.88,1.9a3.73,3.73,0,0,1-5.07-1.64l-2.87-5.75c-1.21-2.35-2.39-4.72-3.56-7.11a3.76,3.76,0,0,1,2-5.13,106.62,106.62,0,0,1,11.8-4,3.8,3.8,0,0,0,2.78-3.27q2.17-21.66,8.46-37.58,6.12-15.69,16.22-24.5a30.55,30.55,0,0,1,20.64-7.63,25.32,25.32,0,0,1,17.51,6.45,26.86,26.86,0,0,1,7.2,11.93,3.74,3.74,0,0,1-2.84,4.77l-5.89,1.2a3.69,3.69,0,0,1-4.26-2.39,12.1,12.1,0,0,0-2.7-4.82,7,7,0,0,0-4.94-2.2q-5.16,0-9.24,5.59-7.31,10.1-11.71,31-1.31,6.27-2.06,12.92a3.78,3.78,0,0,0,3.78,4.16,86.82,86.82,0,0,1,21.31,2.51,3.8,3.8,0,0,1,2.64,5q-1.34,3.56-2.67,6.68a3.76,3.76,0,0,1-3.69,2.27c-1.64-.09-3.28-.13-4.91-.13a93.39,93.39,0,0,0-14.29,1.17,3.78,3.78,0,0,0-3.16,3.82"/><path class="cls-2" d="M295.37,403.06a3.74,3.74,0,0,1-5-2.76,177.57,177.57,0,0,1-3.15-34.67q0-41.25,12.33-69.87a3.77,3.77,0,0,1,5.38-1.74q5.74,3.38,10.58,6.57a3.64,3.64,0,0,1,1.54,3.87c-.1.42-.2.86-.29,1.29a3.77,3.77,0,0,0,6,3.8,29.12,29.12,0,0,1,18.63-6.35q9.24,0,18.22,11.09a3.75,3.75,0,0,1-.05,4.75l-7.17,8.61a3.76,3.76,0,0,1-4.89.75q-5.55-3.5-10.41-3.5-11,0-17.91,11.37A39.58,39.58,0,0,0,313.66,359l.08,1.46a113.65,113.65,0,0,0,5.65,29.5,3.76,3.76,0,0,1-2.2,4.67Z"/><path class="cls-2" d="M369.1,414.43a3.76,3.76,0,0,1-5.05-2.79A178,178,0,0,1,360.92,377q0-38.34,10.83-70.38a3.74,3.74,0,0,1,4.68-2.35L388.16,308a3.74,3.74,0,0,1,2.53,4.28,216.36,216.36,0,0,0-4,40,177.72,177.72,0,0,0,6.54,49.05,3.73,3.73,0,0,1-2.22,4.53Z"/><path class="cls-2" d="M417.47,421.27,402.9,404.43a3.76,3.76,0,0,1,.25-5.16c1.22-1.18,2.4-2.37,3.54-3.55q10.11-10.64,10.11-23.1a36.72,36.72,0,0,0-1.88-12.15,103.14,103.14,0,0,0-4.14-10.1q-1.93-4.19-3.39-8.27a26.06,26.06,0,0,1-1.45-8.71q0-20,29-32.09a3.76,3.76,0,0,1,4.85,1.77l4.48,9a3.74,3.74,0,0,1-1.28,4.78q-14,9.13-14,19.43a16.33,16.33,0,0,0,2,7.58q2,3.81,4.52,7.79t4.78,8.27a55.71,55.71,0,0,1,3.81,9.35,37.4,37.4,0,0,1,1.56,11.07A42.81,42.81,0,0,1,442.64,397a49.67,49.67,0,0,1-8.86,13.81,128.26,128.26,0,0,1-11,10.78,3.75,3.75,0,0,1-5.33-.33"/><path class="cls-2" d="M537.59,387.5,524.53,403a3.77,3.77,0,0,1-5.8-.06q-12.84-15.9-22-43.09a3.74,3.74,0,0,0-5.28-2.15l-1.32.66a3.82,3.82,0,0,0-2.12,3.84,247.16,247.16,0,0,0,5,28,3.74,3.74,0,0,1-2.28,4.37l-22.2,8.57a3.76,3.76,0,0,1-5-2.59,241.08,241.08,0,0,1-6.38-56.38q0-58,25.75-105.19a3.76,3.76,0,0,1,5.19-1.43q5.69,3.33,10.49,6.49a3.72,3.72,0,0,1,1.36,4.51,183.58,183.58,0,0,0-12.27,48.66A285,285,0,0,0,486,328.12c0,1.62,0,3.23,0,4.83a3.76,3.76,0,0,0,6.7,2.28,82.81,82.81,0,0,0,5.08-7,144.14,144.14,0,0,0,11.77-21.07,3.7,3.7,0,0,1,5.39-1.6l1.54,1q5.67,3.25,11.13,6.86a3.77,3.77,0,0,1,1.29,4.81,97.11,97.11,0,0,1-18.16,25.52,3.73,3.73,0,0,0-.91,4A75.5,75.5,0,0,0,537,382.08a3.72,3.72,0,0,1,.64,5.42"/><path class="cls-2" d="M609,304a3.76,3.76,0,0,1,4.45,3,274.72,274.72,0,0,1,4.44,50.22q0,38-10,66-14.83,41-51.75,48.44a3.77,3.77,0,0,1-4.48-3l-4.71-25.48a3.7,3.7,0,0,1,2.57-4.25q17.29-5,27.75-22.28,2.28-3.75,4.24-7.81a3.75,3.75,0,0,0-4.38-5.23,26.58,26.58,0,0,1-7.6,1.11q-10,0-15.59-5.91Q544,388.52,544,365.2a150.09,150.09,0,0,1,2.36-25.68q3.54-20,9-32.55a3.73,3.73,0,0,1,5.31-1.72q5.77,3.39,10.63,6.6a3.68,3.68,0,0,1,1.57,3.86c-.48,2.27-1,5.26-1.57,9a192.93,192.93,0,0,0-2.58,30.19c0,2.08.08,5.13.22,9.14a38.26,38.26,0,0,0,2.42,12q2.21,6,7.15,6,4.4,0,8.7-5.64a34.29,34.29,0,0,0,6-14.32c0-.15,0-.32.07-.48q1.49-15.25,1.48-31.68,0-10.87-.53-19.31A3.7,3.7,0,0,1,597,306.7q5.53-1.41,12-2.75"/><path class="cls-3" d="M465.9,438.61V418.89c0-3.8,1-5,4.79-5.14a11.72,11.72,0,0,1,4.95.83,3.8,3.8,0,0,1,1.93,2.77c.12,14,.23,28.06,0,42.08-.18,11.43-9.43,21.38-20.12,22.17-12.62.94-23.36-6.44-25.46-17.51-2.38-12.55,3.93-23.7,15.51-27.21,6.08-1.84,12-1.22,18.38,1.73m-.07,20.14a11.34,11.34,0,1,0-11.08,11.42,11.24,11.24,0,0,0,11.08-11.42"/><path class="cls-3" d="M373.18,480.38a11.8,11.8,0,0,1-9.77,1.32c-4-1-3.24-5.06-5.28-7.55a24,24,0,0,1-11.88,7.1,23,23,0,0,1-13.67-43.81c11.66-4.41,24.56.74,29.22,12.18,4.09,10,7.55,20.34,11.38,30.76m-21.09-21.53a11.17,11.17,0,0,0-11.35-11.43,11.39,11.39,0,0,0-.06,22.78,11.18,11.18,0,0,0,11.41-11.35"/><path class="cls-3" d="M271.26,474.15c-2,2.6-1.18,6.52-5.13,7.55a12,12,0,0,1-9.8-1.29c.8-2.2,1.59-4.41,2.39-6.62,2.85-7.88,5.55-15.81,8.6-23.6A22.73,22.73,0,0,1,291,436c9.39.88,18,8.29,20.05,17.32a23.07,23.07,0,0,1-11,25.68c-8.74,5-20.06,3.46-27.67-3.78-.35-.33-.73-.64-1.17-1m6.08-15.53a11.17,11.17,0,0,0,11.18,11.58,11.39,11.39,0,0,0,.4-22.78,11.18,11.18,0,0,0-11.58,11.2"/><path class="cls-3" d="M539,480.4a11.89,11.89,0,0,1-9.44,1.39c-4.17-.87-3.63-4.78-5.45-7.56-.63.53-1.28,1-1.89,1.62-11.93,11-31.8,6.27-37.32-9a23,23,0,0,1,13.27-29.32c12-4.67,25,.69,29.74,12.61,3.92,9.9,7.36,20,11.09,30.23m-21-21.61a11.3,11.3,0,0,0-11.45-11.37,11.39,11.39,0,0,0,.07,22.78A11.28,11.28,0,0,0,518,458.79"/><path class="cls-3" d="M425.45,467.51c0,3.6-.12,7.22.05,10.81.08,2-.72,3.08-2.54,3.36a19.85,19.85,0,0,1-5.31.35c-2.47-.31-4-1.47-3.82-4.56.29-6.19.17-12.41.07-18.62a11.44,11.44,0,0,0-22.36-3.4,17.4,17.4,0,0,0-.48,4.74c-.05,5.91-.13,11.82,0,17.73.06,2.22-.7,3.45-2.8,3.8a18.46,18.46,0,0,1-4.72.4c-3.59-.38-4.37-1.36-4.32-5,.1-7.31-.15-14.65.48-21.91,1-11.74,11.8-19.88,24.79-19.29,10.86.5,20.54,10.23,20.86,21.06.1,3.5,0,7,0,10.52Z"/><path class="cls-4" d="M312.64,508.76v3.08h-6.43v3.33H311v3h-4.81v6.39h-3.85V508.76Z"/><path class="cls-4" d="M321.79,508.76v9.45a3.11,3.11,0,0,0,.7,2.18,2.61,2.61,0,0,0,2,.76,2.7,2.7,0,0,0,2.07-.76,3.07,3.07,0,0,0,.72-2.18v-9.45h3.85v9.43a6.66,6.66,0,0,1-.9,3.57,5.7,5.7,0,0,1-2.42,2.2,7.52,7.52,0,0,1-3.38.75,7.36,7.36,0,0,1-3.34-.74,5.37,5.37,0,0,1-2.33-2.2,7,7,0,0,1-.86-3.58v-9.43Z"/><path class="cls-4" d="M351.36,524.55h-3.85l-6.43-9.74v9.74h-3.84V508.76h3.84l6.43,9.79v-9.79h3.85Z"/><path class="cls-4" d="M384.08,508.76v3.08h-6.44v3.33h4.82v3h-4.82v6.39H373.8V508.76Z"/><path class="cls-4" d="M392.86,523.67a7.72,7.72,0,0,1-2.95-2.89,8.5,8.5,0,0,1,0-8.33,7.77,7.77,0,0,1,2.95-2.88,8.6,8.6,0,0,1,8.16,0,7.55,7.55,0,0,1,2.92,2.88,8.61,8.61,0,0,1,0,8.33,7.65,7.65,0,0,1-2.92,2.89,8.5,8.5,0,0,1-8.15,0Zm7.1-3.73a5.45,5.45,0,0,0,0-6.67,3.88,3.88,0,0,0-3-1.25,4,4,0,0,0-3.05,1.24,5.52,5.52,0,0,0,0,6.69,3.93,3.93,0,0,0,3.05,1.25A3.85,3.85,0,0,0,400,519.94Z"/><path class="cls-4" d="M413.9,523.67a7.77,7.77,0,0,1-2.94-2.89,8.5,8.5,0,0,1,0-8.33,7.81,7.81,0,0,1,2.94-2.88,8.62,8.62,0,0,1,8.17,0,7.62,7.62,0,0,1,2.92,2.88,8.61,8.61,0,0,1,0,8.33,7.67,7.67,0,0,1-2.93,2.89,8.13,8.13,0,0,1-4.07,1A8.25,8.25,0,0,1,413.9,523.67Zm7.11-3.73a5.49,5.49,0,0,0,0-6.67,4.32,4.32,0,0,0-6.07,0,5.48,5.48,0,0,0,0,6.69,4.3,4.3,0,0,0,6.07,0Z"/><path class="cls-4" d="M441.82,509.75a7.1,7.1,0,0,1,2.89,2.78,8.83,8.83,0,0,1,0,8.24,7,7,0,0,1-2.9,2.79,9.18,9.18,0,0,1-4.35,1h-5.92V508.76h5.92A9.17,9.17,0,0,1,441.82,509.75ZM440.61,520a4.5,4.5,0,0,0,1.21-3.37,4.21,4.21,0,0,0-4.61-4.61h-1.82v9.17h1.82A4.68,4.68,0,0,0,440.61,520Z"/><path class="cls-4" d="M478.94,516.35a4.65,4.65,0,0,1-1.93,1.84,6.87,6.87,0,0,1-3.24.69h-2.38v5.67h-3.85V508.76h6.23a7,7,0,0,1,3.2.66,4.47,4.47,0,0,1,1.95,1.79,5.22,5.22,0,0,1,.65,2.64A5,5,0,0,1,478.94,516.35Zm-3.82-1a1.93,1.93,0,0,0,.54-1.46,2,2,0,0,0-.54-1.47,2.32,2.32,0,0,0-1.64-.51h-2.09v4h2.09A2.32,2.32,0,0,0,475.12,515.31Z"/><path class="cls-4" d="M488.79,521.58h5v3H485V508.76h3.84Z"/><path class="cls-4" d="M508.88,521.76H503l-.94,2.79h-4l5.71-15.79h4.46l5.71,15.79h-4.07Zm-1-3-2-5.78L504,518.79Z"/><path class="cls-4" d="M532.51,508.76,527,519.33v5.22H523.2v-5.22l-5.47-10.57h4.37l3,6.62,3-6.62Z"/><path class="cls-5" d="M460.3,517.09a4.88,4.88,0,1,1-4.88-4.88,4.88,4.88,0,0,1,4.88,4.88"/><path class="cls-5" d="M369.24,517.09a4.88,4.88,0,1,1-4.88-4.88,4.88,4.88,0,0,1,4.88,4.88"/><path class="cls-5" d="M297.31,517.09a4.89,4.89,0,1,1-4.89-4.88,4.89,4.89,0,0,1,4.89,4.88"/><path class="cls-6" d="M330,271a137.94,137.94,0,0,0,86.18-1.1l3.71,2.89c-7,6.08-16,9.64-25,11.76a95.33,95.33,0,0,1-37.73,1.05c-10.93-1.85-21.1-5.64-30-12.37Z"/><path class="cls-7" d="M453.28,158.87c10.67,19.63,17.45,42.87,11.27,64.35s-24.93,38-45.91,46.14q-4.35,1.68-8.82,2.95c-3,.86-6,1.59-9,2.2s-6.1,1.12-9.18,1.53-6.17.72-9.28.94-6.22.35-9.34.41c-1,0-2,0-3.05,0h-3.87a112.55,112.55,0,0,1-18.44-1.76l-.39-.07-.21-.05h0l-.69-.15c-3-.65-6-1.35-8.95-2.16s-5.9-1.7-8.81-2.69-5.75-2.1-8.56-3.33-5.54-2.58-8.22-4.06l-1.08-.61c-12.69-7.27-23.76-18-29.62-31.38-9.76-22.34-3.83-48.7,7.49-70.29-12.29-5.79-20.18-19.85-18.52-33.33s12.88-25.27,26.28-27.39,27.84,5.74,33.11,18.24a80.79,80.79,0,0,1,23.48-9.16c20.15-4.44,42-1.51,59.92,8.83,5-13.09,19.5-21.82,33.38-20.08s25.83,13.77,27.43,27.68S466.41,154,453.28,158.87Z"/><path class="cls-7" d="M478,167.31a25,25,0,0,1,9.54-13.37,24,24,0,0,1,34,6.85,25.13,25.13,0,0,1-6.46,33.74,24,24,0,0,1-18.71,3.94,5.21,5.21,0,0,0-2.07-.2,4.77,4.77,0,0,0-1.72.88,62.54,62.54,0,0,1-5.36,3.29c-.92.5-1.86,1-2.81,1.43a2.9,2.9,0,0,1-2.18.46,4,4,0,0,1-2.82-3.09,7,7,0,0,1,1.18-4.52,46.93,46.93,0,0,0,2.52-4,2,2,0,0,0,.26-1.34,2.34,2.34,0,0,0-.54-.89,25.69,25.69,0,0,1-5.67-19.3A24,24,0,0,1,478,167.31Z"/><path class="cls-8" d="M281.17,209.82a50.33,50.33,0,0,1,.08-8.68c2.17-27.88,18.85-55.64,41.19-72.18a85.94,85.94,0,0,1,31.25-14.86,75.11,75.11,0,0,1,23.19-1.91,81.5,81.5,0,0,1,40.29,14.39,105.63,105.63,0,0,1,42.64,62.17,82.1,82.1,0,0,1,2.13,17.67,20,20,0,0,1-.19,3.63,32,32,0,0,1-3.47,8.8,60.23,60.23,0,0,1-11.65,15.37,77.19,77.19,0,0,1-15.53,11.47A112.7,112.7,0,0,1,392,258.8c-4.75.73-9.53,1.15-14.34,1.42-3.4.2-6.81.27-10.2.14a133.81,133.81,0,0,1-34.06-5.49,103.07,103.07,0,0,1-24-10.6A73.43,73.43,0,0,1,294.09,232a58.23,58.23,0,0,1-12.23-19.45C281.52,211.65,281.42,210.72,281.17,209.82Z"/><path class="cls-9" d="M281.17,209.82c.61,1.56,1.19,3.14,1.83,4.68a54.11,54.11,0,0,0,7.68,13,65,65,0,0,0,4.71,5.38,77,77,0,0,0,15.28,11.8,102.17,102.17,0,0,0,20.85,9.3,121.35,121.35,0,0,0,17.87,4.28c3,.5,6.1.88,9.16,1.2a125.28,125.28,0,0,0,17,.6q5.55-.19,11.09-.83a130.21,130.21,0,0,0,18.29-3.36,106.25,106.25,0,0,0,24.52-9.57,80.47,80.47,0,0,0,15.06-10.53,61,61,0,0,0,14.23-18.47,54.6,54.6,0,0,0,2.6-6.28c.12-.32.14-.7.42-.95a25.13,25.13,0,0,1-.51,5.81,53.86,53.86,0,0,1-6.68,18.75c-.08.13-.19.24-.28.37s-.17.15-.23.25v0c-.49.56-.82,1.23-1.31,1.78-.33.66-.86,1.17-1.25,1.79a67.88,67.88,0,0,1-17.39,15c-10.81,6.76-22.63,11-35,13.62a138.12,138.12,0,0,1-18,2.55,117.47,117.47,0,0,1-15.24.23,130.2,130.2,0,0,1-37.11-7,91.53,91.53,0,0,1-28.91-16,54,54,0,0,1-7.41-7.33c-.78-.95-1.51-1.94-2.21-2.95a4.62,4.62,0,0,0-1.08-1.29,36.8,36.8,0,0,1-2.92-5.33,52.41,52.41,0,0,1-4.73-16.23A19,19,0,0,1,281.17,209.82Z"/><path class="cls-10" d="M276.7,141.48a24.92,24.92,0,0,1-1.86-9.64c.61.11.5.64.5,1,0,.66.05,1.32.08,2a20.72,20.72,0,0,1,.25-4.52,28.65,28.65,0,0,1,1.2-4.54,27.21,27.21,0,0,1,1.92-4.27,31.86,31.86,0,0,1,2.63-3.88A26.58,26.58,0,0,1,294,109.14c1.27-.41,1.37-.33,1.41,1a4,4,0,0,0,2.36,3.41,10.45,10.45,0,0,0,10.34,0,4,4,0,0,0,2.08-2.57c.4-1.53.38-1.53,1.83-.92.34.18.73.32.81.78a27.63,27.63,0,0,1-.35,13.28c-.16.55-.16,1.28-1,1.41a13.66,13.66,0,0,0-7.39-4.2,14.45,14.45,0,0,0-9.14,1,11.81,11.81,0,0,0-3.11,2,15.71,15.71,0,0,0-4.1,5.48,15.13,15.13,0,0,0,.71,13.3c.16,1-.68.77-1.14.78a25.18,25.18,0,0,1-7.12-.92C279,142.63,277.65,142.46,276.7,141.48Z"/><path class="cls-10" d="M468.34,132.78a9.82,9.82,0,0,1-.56,3.4,26.46,26.46,0,0,1-1.08,3.18,14.2,14.2,0,0,1-5.06,1.72,20.51,20.51,0,0,1-5.47.49c-.45,0-1.06.16-1.21-.57a15.52,15.52,0,0,0,1.85-9.5,14.14,14.14,0,0,0-3.18-7.45,14.64,14.64,0,0,0-6.61-4.64,14.06,14.06,0,0,0-6.69-.58,13.76,13.76,0,0,0-6.79,3c-.55.44-1.06.92-1.59,1.38-.47,0-.57-.37-.67-.69a27.24,27.24,0,0,1-.6-13.27.83.83,0,0,1,.08-.22,1.3,1.3,0,0,1,.35-.48,2.82,2.82,0,0,1,.82-.44c.63-.23,1.11-.1,1.24.61.39,2.07,1.88,3.11,3.67,3.74a10.44,10.44,0,0,0,9.05-.7,3.85,3.85,0,0,0,2.18-3.38c0-1.18.26-1.32,1.46-1a24.69,24.69,0,0,1,9,4.95,26.74,26.74,0,0,1,9.29,16.24,12,12,0,0,1,.26,4.19,1.15,1.15,0,0,0,0,.26A.24.24,0,0,1,468.34,132.78Z"/><path class="cls-8" d="M292.45,239.64c1.22,1.27,2.4,2.57,3.65,3.8a76.7,76.7,0,0,0,15.72,11.8,103.42,103.42,0,0,0,21,9,125.85,125.85,0,0,0,16.28,3.85c3.35.57,6.72,1,10.09,1.33a126.49,126.49,0,0,0,18,.45,134.26,134.26,0,0,0,19.05-2.21,122.17,122.17,0,0,0,22.6-6.5,88.79,88.79,0,0,0,22.72-13,69.4,69.4,0,0,0,9.87-9.67c.23,0,.34,0,.27.29a35.41,35.41,0,0,1-3.39,4.34,73.88,73.88,0,0,1-22.28,16.95,108.43,108.43,0,0,1-27,9.42,130.72,130.72,0,0,1-32.65,2.77c-16-.64-31.4-3.8-46-10.51a79.37,79.37,0,0,1-21.18-13.92,52.36,52.36,0,0,1-7-7.74C292,239.79,292.06,239.62,292.45,239.64Z"/><path class="cls-11" d="M468.34,132.78c-.26.15-.13.5-.43.78a27.21,27.21,0,0,0-7.84-19.45c-3.05-3.2-8.41-6.19-11.61-6.65a.28.28,0,0,0-.13.29,4,4,0,0,1-2.17,4.18,10,10,0,0,1-4.53,1.41,10.77,10.77,0,0,1-5.77-1c-1.58-.78-2.81-1.85-3-3.75,0-.46-.31-.48-.66-.34l-1,.37c-.58-1.54.3-2.72,1-4a24.84,24.84,0,0,1,7.43-2,24.11,24.11,0,0,1,12.07,1.58c8.53,3.46,13.87,9.76,16.17,18.64A24.78,24.78,0,0,1,468.34,132.78Z"/><path class="cls-11" d="M311.93,110.26c-.43,0-.76-.41-1.3-.37a6.56,6.56,0,0,1-.52,2.08,6.33,6.33,0,0,1-3.63,2.61,10.86,10.86,0,0,1-8.83-.7,4.8,4.8,0,0,1-2.48-2.83,3.58,3.58,0,0,1,.06-2,26.15,26.15,0,0,0-14.33,9.75,28.65,28.65,0,0,0-5.46,16.34,11.19,11.19,0,0,1-.4-2.54,1,1,0,0,0-.2-.77,26.45,26.45,0,0,1,7.49-19A25,25,0,0,1,297.72,105,24.58,24.58,0,0,1,311.23,107a4.13,4.13,0,0,1,1.14,2.68C312.42,109.91,312.39,110.27,311.93,110.26Z"/><path class="cls-8" d="M294.08,142.42a9.46,9.46,0,0,1-2.11-9.79,9.25,9.25,0,0,1,7.44-6.52,9.37,9.37,0,0,1,9.76,4.52,1.48,1.48,0,0,1-.33,1.31,26.55,26.55,0,0,1-13.43,10.45C295,142.54,294.53,142.76,294.08,142.42Z"/><path class="cls-8" d="M434.3,128.33a9.11,9.11,0,0,1,9-4.61,9,9,0,0,1,8.12,6.3,9.38,9.38,0,0,1-2,10.1,1.8,1.8,0,0,1-1.47-.11,26.3,26.3,0,0,1-13.34-10.52C434.35,129.15,434,128.8,434.3,128.33Z"/><path class="cls-12" d="M431,108.84a29.69,29.69,0,0,0-.43,8.25,16.45,16.45,0,0,0,1.37,6.07,17.21,17.21,0,0,0-3.14,5.3c-.22.59-.38.62-.82.24a123.24,123.24,0,0,0-9.91-7.4,14.1,14.1,0,0,1,2.74-4.73,24.81,24.81,0,0,1,9.42-7.72,2.66,2.66,0,0,1,.47-.11A.47.47,0,0,1,431,108.84Z"/><path class="cls-12" d="M455,141c.3.36.72.23,1.09.24a24.86,24.86,0,0,0,9.2-1.5,4,4,0,0,1,1.45-.38,23.4,23.4,0,0,1-3.31,6,26.29,26.29,0,0,1-10.78,8.55c-1.91.87-1.9.87-3.1-.89q-1.54-2.26-3.12-4.52c-.41-.59-.4-.71.34-1a15.47,15.47,0,0,0,4.06-2,14.26,14.26,0,0,0,3.82-4.07C454.71,141.3,454.84,141.16,455,141Z"/><path class="cls-12" d="M276.7,141.48a33,33,0,0,0,4.87,1.5,30.32,30.32,0,0,0,6.09.61c.36,0,.72,0,.78-.47.57.69,1,1.48,1.54,2.18a15,15,0,0,0,4.91,3.86c.87.47.91.48.36,1.23-1.2,1.63-2.27,3.35-3.36,5.05-.53.83-.44,1-1.54.52a26.08,26.08,0,0,1-7.05-4.7,27,27,0,0,1-6.38-9.12A5.11,5.11,0,0,1,276.7,141.48Z"/><path class="cls-12" d="M311.47,125.49a6.62,6.62,0,0,0,1.08-3.26,25.34,25.34,0,0,0,.56-5.29,29.24,29.24,0,0,0-.6-5.52c-.06-.28-.15-.52.13-.72s.68-.07,1,.09a26.06,26.06,0,0,1,10.86,10.28,1,1,0,0,1,.13.44c-2.72,1.81-5.34,3.76-7.92,5.75-.62.48-1.2,1-1.79,1.5s-.8.63-1.18-.16A13.56,13.56,0,0,0,311.47,125.49Z"/><path class="cls-9" d="M434.3,128.33a15.26,15.26,0,0,0,2.88,4.1,25.71,25.71,0,0,0,11.4,7.51,7.13,7.13,0,0,0,.8.18,8.87,8.87,0,0,1-6.23,3,1.48,1.48,0,0,1-1.4-.6,99,99,0,0,0-8.21-8.8,1.68,1.68,0,0,1-.63-1.64A10,10,0,0,1,434.3,128.33Z"/><path class="cls-13" d="M431,108.84h-.23l-.25.22a16.65,16.65,0,0,0-4.19,2.46,26.18,26.18,0,0,0-7.91,9.32,3.1,3.1,0,0,1-.35.46c-.56-.27-.51-.69-.33-1.19a26.47,26.47,0,0,1,4.61-8.1,26,26,0,0,1,9.52-7.26l.33-.1a15.78,15.78,0,0,1-.73,2.4,4.14,4.14,0,0,0-.24,1.56Z"/><path class="cls-9" d="M294.08,142.42a16.87,16.87,0,0,0,5.31-2.11,26.61,26.61,0,0,0,9.21-8.53,3.35,3.35,0,0,0,.57-1.15,1.21,1.21,0,0,1,.16.16c1,2,1,2-.57,3.6a112.3,112.3,0,0,0-9,10c-.81,1-.83,1-2,.53A8.65,8.65,0,0,1,294.08,142.42Z"/><path class="cls-13" d="M324.61,121.51a.91.91,0,0,1-.42-.38,22.83,22.83,0,0,0-3.26-4.39,25.8,25.8,0,0,0-7.42-5.71,2.25,2.25,0,0,0-.87-.33c-.15-.29-.56-.16-.71-.44.33-.27.24-.6.12-.94l-.82-2.37a20,20,0,0,1,5.63,3.23,26.46,26.46,0,0,1,8,10.07C325,120.73,325.31,121.19,324.61,121.51Z"/><path class="cls-14" d="M486.44,188.69a14.51,14.51,0,0,1-2.35-3.16c-.56-1.22-1.16-2.42-1.61-3.68a21.07,21.07,0,0,1,10.6-24.95c7.45-3.72,14.74-3,21.52,1.94.89.73,1.68,1.56,2.49,2.37a5.31,5.31,0,0,1,1.1,1.6,12.14,12.14,0,0,1,1.18,5.69A21.14,21.14,0,0,1,514.81,182,20.62,20.62,0,0,1,502,189.76c-4.27.81-8.53,1.14-12.74-.37a5.41,5.41,0,0,1-1.8-.84C487,188.14,486.78,188.52,486.44,188.69Z"/><path class="cls-15" d="M486.44,188.69c.3-.38-.34-.68-.12-1,.26-.13.39.06.54.16a13.24,13.24,0,0,0,5.9,2.08,26.81,26.81,0,0,0,14.29-2,19,19,0,0,0,7.22-5.64,21.55,21.55,0,0,0,4.13-8.2,20.25,20.25,0,0,0-.15-10.73,3.4,3.4,0,0,1-.06-.46,17.38,17.38,0,0,1,2.54,5.23,10.35,10.35,0,0,1,.67,3.06c-.26.7.05,1.39,0,2.09a20.28,20.28,0,0,1-8.64,17A19.48,19.48,0,0,1,496,193.56a5.6,5.6,0,0,0-4.69.75c-1.77,1.15-3.64,2.14-5.45,3.22-.38.22-.75.62-1.28.33a15.69,15.69,0,0,1,1.57-2.84A5.56,5.56,0,0,0,486.44,188.69Z"/><path class="cls-16" d="M514.62,159.11a21.46,21.46,0,0,0-8.83-3.84,19.06,19.06,0,0,0-10.57,1c-7.13,2.84-11.38,8.16-13,15.6a20,20,0,0,0,.35,9.39,5.81,5.81,0,0,1,.09.58c0,.44-.19.33-.35.08-.06-.1-.08-.22-.19-.28a18.43,18.43,0,0,1-1.29-9.3,20.57,20.57,0,0,1,8.73-15.18,20,20,0,0,1,25,1.4,3,3,0,0,1,.23.27C514.94,159.08,514.84,159.15,514.62,159.11Z"/><path class="cls-14" d="M484.59,197.86l5.67-3.26c.54-.31,1.06-.66,1.6-1a5,5,0,0,1,4.17-.37,16.58,16.58,0,0,0,6.14.58,20.54,20.54,0,0,0,11.33-4.55,20.77,20.77,0,0,0,7.48-13,25.38,25.38,0,0,0,.23-4.08c0-.38-.13-.79.19-1.12a19.94,19.94,0,0,1-1.56,11.68c-3.06,6.62-8.14,10.75-15.38,12.05a18.79,18.79,0,0,1-8.14-.31,5.54,5.54,0,0,0-4.49.64c-2.53,1.55-5.09,3.06-7.65,4.57-.25.16-.52.28-1,.53A16.58,16.58,0,0,1,484.59,197.86Z"/><path class="cls-17" d="M482.17,181.66c.23-.06.23.49.54.2a25.35,25.35,0,0,1,1.38,3.67A10.65,10.65,0,0,1,482.17,181.66Z"/><path class="cls-18" d="M514.62,159.11l.25-.26a9.58,9.58,0,0,1,2.22,2.36A19,19,0,0,1,514.62,159.11Z"/><path class="cls-10" d="M356.5,174.91a52.42,52.42,0,0,1-7.81,26.73,45.19,45.19,0,0,1-12.85,14,30.14,30.14,0,0,1-11.63,5.07,19.7,19.7,0,0,1-21.07-9.19A29.1,29.1,0,0,1,299,199.63c-1.51-11.79,1.5-22.57,7.56-32.6a43.6,43.6,0,0,1,14-14.58,28.14,28.14,0,0,1,10.6-4.22c8.27-1.34,15,1.35,19.93,8.08a27.68,27.68,0,0,1,4.69,11.52A44.92,44.92,0,0,1,356.5,174.91Z"/><path class="cls-10" d="M388.46,175.63a34.5,34.5,0,0,1,3.32-16A20.78,20.78,0,0,1,401,150a20.38,20.38,0,0,1,15.51-1.15,33.47,33.47,0,0,1,13.44,7.89,51.84,51.84,0,0,1,15,25.82,44.53,44.53,0,0,1,1.37,13.6,31.54,31.54,0,0,1-4.38,15.17,19.54,19.54,0,0,1-13.27,9.42,21.85,21.85,0,0,1-11.44-1,34,34,0,0,1-11.88-7.14,51.69,51.69,0,0,1-15.35-26A42.06,42.06,0,0,1,388.46,175.63Z"/><path class="cls-7" d="M370,207.12c0-.9,0-1.8,0-2.7,0-.53-.08-.82-.7-1a13.2,13.2,0,0,1-6.59-4.29,8.61,8.61,0,0,1-2-3.56,3.17,3.17,0,0,1,.83-3.13,7.33,7.33,0,0,1,2.65-1.69,19.74,19.74,0,0,1,5.83-1.26,25.55,25.55,0,0,1,9.41.83,10.12,10.12,0,0,1,3.08,1.41,3.5,3.5,0,0,1,1.4,4.61,7.72,7.72,0,0,1-1.27,2.23,13.48,13.48,0,0,1-6.91,4.81c-.66.19-.87.44-.86,1.12.05,1.8,0,3.6,0,5.4a1.68,1.68,0,0,0,.35,1.19,14.3,14.3,0,0,0,5.12,4.21,8,8,0,0,0,4.91.66,5.13,5.13,0,0,0,3.84-7.15,2.68,2.68,0,0,1-.28-1.47,2.54,2.54,0,0,1,1.89-2.16,2.4,2.4,0,0,1,2.56,1,7.09,7.09,0,0,1,1.2,4,10.5,10.5,0,0,1-3.73,8.63,3.53,3.53,0,0,1-1.15.79c-1.39.42-1.57,1.38-1.57,2.67a24,24,0,0,1-2.6,10.86,17.41,17.41,0,0,1-4.63,5.84,12.91,12.91,0,0,1-16.37,0,18.63,18.63,0,0,1-6-9.45,27,27,0,0,1-1.15-7.87,1.32,1.32,0,0,0-.93-1.48c-4.76-2-6.84-7.57-5.62-12.13a5.65,5.65,0,0,1,.71-1.61,2.44,2.44,0,0,1,3.33-1,2.53,2.53,0,0,1,1,3.35,5.28,5.28,0,0,0,1.27,6,6,6,0,0,0,4.85,1.27,10.09,10.09,0,0,0,5.52-2.66c2.5-2.17,2.55-2.27,2.55-5.58Z"/><path class="cls-10" d="M430.53,109.06l.25-.22Z"/><path class="cls-8" d="M491.36,171.33a5.34,5.34,0,0,1,8.74-4.12c.38.26.65.79,1.1.81s.74-.53,1.11-.8a5.38,5.38,0,0,1,7.26.41,5.67,5.67,0,0,1,0,7.7c-1.92,2.07-3.93,4-5.9,6.06-.41.42-.81.85-1.23,1.25-.9.86-1.56.87-2.43,0-1.12-1.09-2.21-2.22-3.3-3.34-1.26-1.29-2.53-2.57-3.77-3.87A5.8,5.8,0,0,1,491.36,171.33Z"/><path class="cls-7" d="M336,164.23a10.86,10.86,0,0,1,8.83,4.52,18.64,18.64,0,0,1,3.56,9.63,25,25,0,0,1-1.7,11.79,20.52,20.52,0,0,1-4.43,7.11,17.68,17.68,0,0,1-5.23,3.89,10.85,10.85,0,0,1-12.44-2.06,16.51,16.51,0,0,1-4.45-8.48,22.94,22.94,0,0,1-.41-7.1,24.8,24.8,0,0,1,3.73-11.22,20.8,20.8,0,0,1,5.14-5.56A12,12,0,0,1,336,164.23Z"/><path class="cls-7" d="M425.61,185.38a20,20,0,0,1-2.39,10.42,12.12,12.12,0,0,1-6.81,5.94,10.71,10.71,0,0,1-7.54-.3,15.73,15.73,0,0,1-5.34-3.54,19.13,19.13,0,0,1-3.15-4.06,25.44,25.44,0,0,1-3.47-10.59,22.33,22.33,0,0,1-.17-3.26,19.91,19.91,0,0,1,3-10.31,11.37,11.37,0,0,1,7.44-5.27,11.13,11.13,0,0,1,6.2.57,18,18,0,0,1,8.72,7.86,25.53,25.53,0,0,1,3.28,9.56A26.58,26.58,0,0,1,425.61,185.38Z"/><path class="cls-19" d="M373.53,236.88A9.14,9.14,0,0,1,365.6,233c-1.38-1.79-1.4-3-.1-4.9a7.82,7.82,0,0,1,5.69-3.36,8.58,8.58,0,0,1,7.7,2.57,6,6,0,0,1,1.19,1.87,3.7,3.7,0,0,1-.58,4.23C377.68,235.47,375.57,236.84,373.53,236.88Z"/><path class="cls-8" d="M334,175.22a8.09,8.09,0,0,1,.92-4.11c1.47-2.62,4.25-3,6.36-.92a8.31,8.31,0,0,1,2.26,6.78,7,7,0,0,1-.84,2.9c-1.48,2.66-4.3,3.09-6.44.93A8.15,8.15,0,0,1,334,175.22Z"/><path class="cls-20" d="M330,193.88a3,3,0,0,1-.32,1.48,2,2,0,0,1-2.93.93,4.53,4.53,0,0,1-1.82-5.13,2,2,0,0,1,3.08-1A4.34,4.34,0,0,1,330,193.88Z"/><path class="cls-8" d="M411.28,174.89a9.33,9.33,0,0,1-1.14,4.4,6.56,6.56,0,0,1-1.55,1.89,3.71,3.71,0,0,1-5.7-.79,7.21,7.21,0,0,1-1.2-3.75,8.94,8.94,0,0,1,1.15-4.95,6,6,0,0,1,1.85-2.09,3.63,3.63,0,0,1,5.12.71A7.29,7.29,0,0,1,411.28,174.89Z"/><path class="cls-20" d="M420.51,192.51a4.26,4.26,0,0,1-1.67,3.54,2.08,2.08,0,0,1-3.47-1.18,4.64,4.64,0,0,1,1.51-4.53,2.26,2.26,0,0,1,2.31-.4,2.2,2.2,0,0,1,1.28,1.95C420.5,192.13,420.5,192.36,420.51,192.51Z"/><path class="cls-7" d="M370.06,277.44h0Z"/><path class="cls-21" d="M486.94,100.06a1.83,1.83,0,0,0,1.25-.34,1.32,1.32,0,0,0,.39-1.07,1.34,1.34,0,0,0-.39-1.06,2,2,0,0,0-1.25-.32h-1.18v2.79h1.18M485.76,102v4.1H483V95.24h4.27a5.42,5.42,0,0,1,3.14.73,2.58,2.58,0,0,1,1,2.27,2.84,2.84,0,0,1-.52,1.77,3,3,0,0,1-1.57,1,2.06,2.06,0,0,1,1,.6,4.9,4.9,0,0,1,.92,1.4l1.53,3.07h-3l-1.33-2.69a2.81,2.81,0,0,0-.81-1.11,1.81,1.81,0,0,0-1.09-.3h-.79"/><circle class="cls-22" cx="487.29" cy="100.67" r="10.79"/></svg>